<mxfile host="app.diagrams.net" agent="Mozilla/5.0 (Windows NT 10.0; Win64; x64) AppleWebKit/537.36 (KHTML, like Gecko) Chrome/136.0.0.0 Safari/537.36" version="27.0.6">
  <diagram name="페이지-1" id="AGTGFXkWNNleGCs_GDx5">
    <mxGraphModel dx="2066" dy="1263" grid="1" gridSize="10" guides="1" tooltips="1" connect="1" arrows="1" fold="1" page="1" pageScale="1" pageWidth="827" pageHeight="1169" math="0" shadow="0">
      <root>
        <mxCell id="0" />
        <mxCell id="1" parent="0" />
        <mxCell id="0RlZufE-zWfmqXK-ht3J-1" value="Character" style="swimlane;fontStyle=1;align=center;verticalAlign=top;childLayout=stackLayout;horizontal=1;startSize=26;horizontalStack=0;resizeParent=1;resizeParentMax=0;resizeLast=0;collapsible=1;marginBottom=0;whiteSpace=wrap;html=1;" vertex="1" parent="1">
          <mxGeometry x="314" y="40" width="200" height="250" as="geometry" />
        </mxCell>
        <mxCell id="0RlZufE-zWfmqXK-ht3J-2" value="+ rnd: Random&lt;div&gt;+ Hp: int&lt;/div&gt;&lt;div&gt;+ Level: int&lt;/div&gt;&lt;div&gt;+ Name: char&lt;/div&gt;&lt;div&gt;+ Power: int&lt;/div&gt;" style="text;strokeColor=none;fillColor=none;align=left;verticalAlign=top;spacingLeft=4;spacingRight=4;overflow=hidden;rotatable=0;points=[[0,0.5],[1,0.5]];portConstraint=eastwest;whiteSpace=wrap;html=1;" vertex="1" parent="0RlZufE-zWfmqXK-ht3J-1">
          <mxGeometry y="26" width="200" height="84" as="geometry" />
        </mxCell>
        <mxCell id="0RlZufE-zWfmqXK-ht3J-3" value="" style="line;strokeWidth=1;fillColor=none;align=left;verticalAlign=middle;spacingTop=-1;spacingLeft=3;spacingRight=3;rotatable=0;labelPosition=right;points=[];portConstraint=eastwest;strokeColor=inherit;" vertex="1" parent="0RlZufE-zWfmqXK-ht3J-1">
          <mxGeometry y="110" width="200" height="10" as="geometry" />
        </mxCell>
        <mxCell id="0RlZufE-zWfmqXK-ht3J-4" value="+ Attack(Character): void&lt;div&gt;+ GetRandomDamage(int, int): int&lt;/div&gt;&lt;div&gt;+ Talk(): void&lt;/div&gt;&lt;div&gt;+ TryDogge(int): bool&lt;/div&gt;&lt;div&gt;&lt;br&gt;&lt;/div&gt;" style="text;strokeColor=none;fillColor=none;align=left;verticalAlign=top;spacingLeft=4;spacingRight=4;overflow=hidden;rotatable=0;points=[[0,0.5],[1,0.5]];portConstraint=eastwest;whiteSpace=wrap;html=1;" vertex="1" parent="0RlZufE-zWfmqXK-ht3J-1">
          <mxGeometry y="120" width="200" height="130" as="geometry" />
        </mxCell>
        <mxCell id="0RlZufE-zWfmqXK-ht3J-9" value="Monster" style="swimlane;fontStyle=1;align=center;verticalAlign=top;childLayout=stackLayout;horizontal=1;startSize=26;horizontalStack=0;resizeParent=1;resizeParentMax=0;resizeLast=0;collapsible=1;marginBottom=0;whiteSpace=wrap;html=1;" vertex="1" parent="1">
          <mxGeometry x="120" y="360" width="160" height="34" as="geometry" />
        </mxCell>
        <mxCell id="0RlZufE-zWfmqXK-ht3J-11" value="" style="line;strokeWidth=1;fillColor=none;align=left;verticalAlign=middle;spacingTop=-1;spacingLeft=3;spacingRight=3;rotatable=0;labelPosition=right;points=[];portConstraint=eastwest;strokeColor=inherit;" vertex="1" parent="0RlZufE-zWfmqXK-ht3J-9">
          <mxGeometry y="26" width="160" height="8" as="geometry" />
        </mxCell>
        <mxCell id="0RlZufE-zWfmqXK-ht3J-13" value="Orc" style="swimlane;fontStyle=1;align=center;verticalAlign=top;childLayout=stackLayout;horizontal=1;startSize=26;horizontalStack=0;resizeParent=1;resizeParentMax=0;resizeLast=0;collapsible=1;marginBottom=0;whiteSpace=wrap;html=1;" vertex="1" parent="1">
          <mxGeometry x="19" y="640" width="160" height="100" as="geometry" />
        </mxCell>
        <mxCell id="0RlZufE-zWfmqXK-ht3J-14" value="- lines: string[]" style="text;strokeColor=none;fillColor=none;align=left;verticalAlign=top;spacingLeft=4;spacingRight=4;overflow=hidden;rotatable=0;points=[[0,0.5],[1,0.5]];portConstraint=eastwest;whiteSpace=wrap;html=1;" vertex="1" parent="0RlZufE-zWfmqXK-ht3J-13">
          <mxGeometry y="26" width="160" height="24" as="geometry" />
        </mxCell>
        <mxCell id="0RlZufE-zWfmqXK-ht3J-15" value="" style="line;strokeWidth=1;fillColor=none;align=left;verticalAlign=middle;spacingTop=-1;spacingLeft=3;spacingRight=3;rotatable=0;labelPosition=right;points=[];portConstraint=eastwest;strokeColor=inherit;" vertex="1" parent="0RlZufE-zWfmqXK-ht3J-13">
          <mxGeometry y="50" width="160" height="10" as="geometry" />
        </mxCell>
        <mxCell id="0RlZufE-zWfmqXK-ht3J-16" value="&lt;div&gt;+ Orc()&lt;/div&gt;&lt;div&gt;+ Talk(): void&lt;/div&gt;" style="text;strokeColor=none;fillColor=none;align=left;verticalAlign=top;spacingLeft=4;spacingRight=4;overflow=hidden;rotatable=0;points=[[0,0.5],[1,0.5]];portConstraint=eastwest;whiteSpace=wrap;html=1;" vertex="1" parent="0RlZufE-zWfmqXK-ht3J-13">
          <mxGeometry y="60" width="160" height="40" as="geometry" />
        </mxCell>
        <mxCell id="0RlZufE-zWfmqXK-ht3J-17" value="Slime" style="swimlane;fontStyle=1;align=center;verticalAlign=top;childLayout=stackLayout;horizontal=1;startSize=26;horizontalStack=0;resizeParent=1;resizeParentMax=0;resizeLast=0;collapsible=1;marginBottom=0;whiteSpace=wrap;html=1;" vertex="1" parent="1">
          <mxGeometry x="219" y="640" width="160" height="100" as="geometry" />
        </mxCell>
        <mxCell id="0RlZufE-zWfmqXK-ht3J-18" value="- lines: string[]" style="text;strokeColor=none;fillColor=none;align=left;verticalAlign=top;spacingLeft=4;spacingRight=4;overflow=hidden;rotatable=0;points=[[0,0.5],[1,0.5]];portConstraint=eastwest;whiteSpace=wrap;html=1;" vertex="1" parent="0RlZufE-zWfmqXK-ht3J-17">
          <mxGeometry y="26" width="160" height="24" as="geometry" />
        </mxCell>
        <mxCell id="0RlZufE-zWfmqXK-ht3J-19" value="" style="line;strokeWidth=1;fillColor=none;align=left;verticalAlign=middle;spacingTop=-1;spacingLeft=3;spacingRight=3;rotatable=0;labelPosition=right;points=[];portConstraint=eastwest;strokeColor=inherit;" vertex="1" parent="0RlZufE-zWfmqXK-ht3J-17">
          <mxGeometry y="50" width="160" height="10" as="geometry" />
        </mxCell>
        <mxCell id="0RlZufE-zWfmqXK-ht3J-20" value="&lt;div&gt;+ Orc()&lt;/div&gt;&lt;div&gt;+ Talk(): void&lt;/div&gt;" style="text;strokeColor=none;fillColor=none;align=left;verticalAlign=top;spacingLeft=4;spacingRight=4;overflow=hidden;rotatable=0;points=[[0,0.5],[1,0.5]];portConstraint=eastwest;whiteSpace=wrap;html=1;" vertex="1" parent="0RlZufE-zWfmqXK-ht3J-17">
          <mxGeometry y="60" width="160" height="40" as="geometry" />
        </mxCell>
        <mxCell id="0RlZufE-zWfmqXK-ht3J-23" value="Warrior" style="swimlane;fontStyle=1;align=center;verticalAlign=top;childLayout=stackLayout;horizontal=1;startSize=26;horizontalStack=0;resizeParent=1;resizeParentMax=0;resizeLast=0;collapsible=1;marginBottom=0;whiteSpace=wrap;html=1;" vertex="1" parent="1">
          <mxGeometry x="459" y="640" width="160" height="100" as="geometry" />
        </mxCell>
        <mxCell id="0RlZufE-zWfmqXK-ht3J-24" value="- lines: string[]" style="text;strokeColor=none;fillColor=none;align=left;verticalAlign=top;spacingLeft=4;spacingRight=4;overflow=hidden;rotatable=0;points=[[0,0.5],[1,0.5]];portConstraint=eastwest;whiteSpace=wrap;html=1;" vertex="1" parent="0RlZufE-zWfmqXK-ht3J-23">
          <mxGeometry y="26" width="160" height="24" as="geometry" />
        </mxCell>
        <mxCell id="0RlZufE-zWfmqXK-ht3J-25" value="" style="line;strokeWidth=1;fillColor=none;align=left;verticalAlign=middle;spacingTop=-1;spacingLeft=3;spacingRight=3;rotatable=0;labelPosition=right;points=[];portConstraint=eastwest;strokeColor=inherit;" vertex="1" parent="0RlZufE-zWfmqXK-ht3J-23">
          <mxGeometry y="50" width="160" height="10" as="geometry" />
        </mxCell>
        <mxCell id="0RlZufE-zWfmqXK-ht3J-26" value="&lt;div&gt;+ Warrior(string)&lt;/div&gt;&lt;div&gt;+ Talk():void&lt;/div&gt;" style="text;strokeColor=none;fillColor=none;align=left;verticalAlign=top;spacingLeft=4;spacingRight=4;overflow=hidden;rotatable=0;points=[[0,0.5],[1,0.5]];portConstraint=eastwest;whiteSpace=wrap;html=1;" vertex="1" parent="0RlZufE-zWfmqXK-ht3J-23">
          <mxGeometry y="60" width="160" height="40" as="geometry" />
        </mxCell>
        <mxCell id="0RlZufE-zWfmqXK-ht3J-27" value="Mage" style="swimlane;fontStyle=1;align=center;verticalAlign=top;childLayout=stackLayout;horizontal=1;startSize=26;horizontalStack=0;resizeParent=1;resizeParentMax=0;resizeLast=0;collapsible=1;marginBottom=0;whiteSpace=wrap;html=1;" vertex="1" parent="1">
          <mxGeometry x="649" y="640" width="160" height="100" as="geometry" />
        </mxCell>
        <mxCell id="0RlZufE-zWfmqXK-ht3J-28" value="- lines: string[]" style="text;strokeColor=none;fillColor=none;align=left;verticalAlign=top;spacingLeft=4;spacingRight=4;overflow=hidden;rotatable=0;points=[[0,0.5],[1,0.5]];portConstraint=eastwest;whiteSpace=wrap;html=1;" vertex="1" parent="0RlZufE-zWfmqXK-ht3J-27">
          <mxGeometry y="26" width="160" height="24" as="geometry" />
        </mxCell>
        <mxCell id="0RlZufE-zWfmqXK-ht3J-29" value="" style="line;strokeWidth=1;fillColor=none;align=left;verticalAlign=middle;spacingTop=-1;spacingLeft=3;spacingRight=3;rotatable=0;labelPosition=right;points=[];portConstraint=eastwest;strokeColor=inherit;" vertex="1" parent="0RlZufE-zWfmqXK-ht3J-27">
          <mxGeometry y="50" width="160" height="10" as="geometry" />
        </mxCell>
        <mxCell id="0RlZufE-zWfmqXK-ht3J-30" value="&lt;div&gt;+ Mage(string)&lt;/div&gt;&lt;div&gt;&lt;span style=&quot;background-color: transparent; color: light-dark(rgb(0, 0, 0), rgb(255, 255, 255));&quot;&gt;+ Talk(): void&lt;/span&gt;&lt;/div&gt;" style="text;strokeColor=none;fillColor=none;align=left;verticalAlign=top;spacingLeft=4;spacingRight=4;overflow=hidden;rotatable=0;points=[[0,0.5],[1,0.5]];portConstraint=eastwest;whiteSpace=wrap;html=1;" vertex="1" parent="0RlZufE-zWfmqXK-ht3J-27">
          <mxGeometry y="60" width="160" height="40" as="geometry" />
        </mxCell>
        <mxCell id="0RlZufE-zWfmqXK-ht3J-31" value="Player" style="swimlane;fontStyle=1;align=center;verticalAlign=top;childLayout=stackLayout;horizontal=1;startSize=26;horizontalStack=0;resizeParent=1;resizeParentMax=0;resizeLast=0;collapsible=1;marginBottom=0;whiteSpace=wrap;html=1;" vertex="1" parent="1">
          <mxGeometry x="560" y="360" width="160" height="90" as="geometry" />
        </mxCell>
        <mxCell id="0RlZufE-zWfmqXK-ht3J-33" value="" style="line;strokeWidth=1;fillColor=none;align=left;verticalAlign=middle;spacingTop=-1;spacingLeft=3;spacingRight=3;rotatable=0;labelPosition=right;points=[];portConstraint=eastwest;strokeColor=inherit;" vertex="1" parent="0RlZufE-zWfmqXK-ht3J-31">
          <mxGeometry y="26" width="160" height="10" as="geometry" />
        </mxCell>
        <mxCell id="0RlZufE-zWfmqXK-ht3J-34" value="+ LevelUp(): void&lt;div&gt;+ LevelUp(int): void&lt;/div&gt;&lt;div&gt;+ LevelUp(int, int): void&lt;/div&gt;" style="text;strokeColor=none;fillColor=none;align=left;verticalAlign=top;spacingLeft=4;spacingRight=4;overflow=hidden;rotatable=0;points=[[0,0.5],[1,0.5]];portConstraint=eastwest;whiteSpace=wrap;html=1;" vertex="1" parent="0RlZufE-zWfmqXK-ht3J-31">
          <mxGeometry y="36" width="160" height="54" as="geometry" />
        </mxCell>
        <mxCell id="0RlZufE-zWfmqXK-ht3J-35" value="" style="endArrow=open;endFill=1;endSize=12;html=1;rounded=0;entryX=0.496;entryY=1.004;entryDx=0;entryDy=0;entryPerimeter=0;exitX=0.5;exitY=0;exitDx=0;exitDy=0;" edge="1" parent="1" source="0RlZufE-zWfmqXK-ht3J-9" target="0RlZufE-zWfmqXK-ht3J-4">
          <mxGeometry width="160" relative="1" as="geometry">
            <mxPoint x="420" y="530" as="sourcePoint" />
            <mxPoint x="500" y="390" as="targetPoint" />
            <Array as="points">
              <mxPoint x="200" y="330" />
              <mxPoint x="413" y="330" />
            </Array>
          </mxGeometry>
        </mxCell>
        <mxCell id="0RlZufE-zWfmqXK-ht3J-36" value="" style="endArrow=none;html=1;rounded=0;entryX=0.5;entryY=0;entryDx=0;entryDy=0;" edge="1" parent="1" target="0RlZufE-zWfmqXK-ht3J-31">
          <mxGeometry width="50" height="50" relative="1" as="geometry">
            <mxPoint x="410" y="330" as="sourcePoint" />
            <mxPoint x="540" y="390" as="targetPoint" />
            <Array as="points">
              <mxPoint x="640" y="330" />
            </Array>
          </mxGeometry>
        </mxCell>
        <mxCell id="0RlZufE-zWfmqXK-ht3J-37" value="" style="endArrow=open;endFill=1;endSize=12;html=1;rounded=0;entryX=0.5;entryY=1;entryDx=0;entryDy=0;exitX=0.5;exitY=0;exitDx=0;exitDy=0;" edge="1" parent="1" source="0RlZufE-zWfmqXK-ht3J-13" target="0RlZufE-zWfmqXK-ht3J-9">
          <mxGeometry width="160" relative="1" as="geometry">
            <mxPoint x="101" y="619" as="sourcePoint" />
            <mxPoint x="314" y="550" as="targetPoint" />
            <Array as="points">
              <mxPoint x="100" y="590" />
              <mxPoint x="200" y="590" />
            </Array>
          </mxGeometry>
        </mxCell>
        <mxCell id="0RlZufE-zWfmqXK-ht3J-38" value="" style="endArrow=none;html=1;rounded=0;entryX=0.5;entryY=0;entryDx=0;entryDy=0;" edge="1" parent="1" target="0RlZufE-zWfmqXK-ht3J-17">
          <mxGeometry width="50" height="50" relative="1" as="geometry">
            <mxPoint x="200" y="590" as="sourcePoint" />
            <mxPoint x="430" y="620" as="targetPoint" />
            <Array as="points">
              <mxPoint x="300" y="590" />
            </Array>
          </mxGeometry>
        </mxCell>
        <mxCell id="0RlZufE-zWfmqXK-ht3J-39" value="" style="endArrow=open;endFill=1;endSize=12;html=1;rounded=0;entryX=0.5;entryY=1;entryDx=0;entryDy=0;exitX=0.5;exitY=0;exitDx=0;exitDy=0;" edge="1" parent="1" source="0RlZufE-zWfmqXK-ht3J-23" target="0RlZufE-zWfmqXK-ht3J-31">
          <mxGeometry width="160" relative="1" as="geometry">
            <mxPoint x="450" y="786" as="sourcePoint" />
            <mxPoint x="551" y="540" as="targetPoint" />
            <Array as="points">
              <mxPoint x="540" y="590" />
              <mxPoint x="640" y="590" />
            </Array>
          </mxGeometry>
        </mxCell>
        <mxCell id="0RlZufE-zWfmqXK-ht3J-40" value="" style="endArrow=none;html=1;rounded=0;entryX=0.5;entryY=0;entryDx=0;entryDy=0;" edge="1" parent="1">
          <mxGeometry width="50" height="50" relative="1" as="geometry">
            <mxPoint x="640" y="590" as="sourcePoint" />
            <mxPoint x="739" y="640" as="targetPoint" />
            <Array as="points">
              <mxPoint x="740" y="590" />
            </Array>
          </mxGeometry>
        </mxCell>
      </root>
    </mxGraphModel>
  </diagram>
</mxfile>
